<svg width="40" height="41" viewBox="0 0 40 41" fill="none" xmlns="http://www.w3.org/2000/svg">
<rect y="0.5" width="40" height="40" rx="20" fill="#2057EE"/>
<path fill-rule="evenodd" clip-rule="evenodd" d="M20 29C24.6944 29 28.5 25.1944 28.5 20.5C28.5 15.8056 24.6944 12 20 12C15.3056 12 11.5 15.8056 11.5 20.5C11.5 25.1944 15.3056 29 20 29ZM20 30.5C25.5228 30.5 30 26.0228 30 20.5C30 14.9772 25.5228 10.5 20 10.5C14.4772 10.5 10 14.9772 10 20.5C10 26.0228 14.4772 30.5 20 30.5Z" fill="white"/>
<path fill-rule="evenodd" clip-rule="evenodd" d="M20.0057 19.2438C20.3892 19.2438 20.7002 19.5547 20.7002 19.9383V24.1055C20.7002 24.489 20.3892 24.8 20.0057 24.8C19.6221 24.8 19.3111 24.489 19.3111 24.1055V19.9383C19.3111 19.5547 19.6221 19.2438 20.0057 19.2438Z" fill="white"/>
<path fill-rule="evenodd" clip-rule="evenodd" d="M20.0057 16.2405C20.3892 16.2405 20.7002 16.5514 20.7002 16.935V17.6295C20.7002 18.0131 20.3892 18.3241 20.0057 18.3241C19.6221 18.3241 19.3111 18.0131 19.3111 17.6295V16.935C19.3111 16.5514 19.6221 16.2405 20.0057 16.2405Z" fill="white"/>
<path fill-rule="evenodd" clip-rule="evenodd" d="M20.9502 24.1055C20.9502 24.6271 20.5273 25.05 20.0057 25.05C19.484 25.05 19.0611 24.6271 19.0611 24.1055V19.9383C19.0611 19.4167 19.484 18.9938 20.0057 18.9938C20.5273 18.9938 20.9502 19.4167 20.9502 19.9383V24.1055ZM20.0057 24.55C20.2512 24.55 20.4502 24.351 20.4502 24.1055V19.9383C20.4502 19.6928 20.2512 19.4938 20.0057 19.4938C19.7602 19.4938 19.5611 19.6928 19.5611 19.9383V24.1055C19.5611 24.351 19.7602 24.55 20.0057 24.55ZM20.9502 17.6295C20.9502 18.1512 20.5273 18.5741 20.0057 18.5741C19.484 18.5741 19.0611 18.1512 19.0611 17.6295V16.935C19.0611 16.4134 19.484 15.9905 20.0057 15.9905C20.5273 15.9905 20.9502 16.4134 20.9502 16.935V17.6295ZM20.0057 18.0741C20.2512 18.0741 20.4502 17.875 20.4502 17.6295V16.935C20.4502 16.6895 20.2512 16.4905 20.0057 16.4905C19.7602 16.4905 19.5611 16.6895 19.5611 16.935V17.6295C19.5611 17.875 19.7602 18.0741 20.0057 18.0741Z" fill="white"/>
</svg>
