<svg width="37" height="35" viewBox="0 0 37 35" fill="none" xmlns="http://www.w3.org/2000/svg">
<path d="M19.7429 30.3592C23.4016 32.1469 27.709 33.436 32.7615 33.9874C33.9877 34.1214 35.0313 33.1676 35.0313 31.9698V27.5056C35.0313 26.5539 34.3641 25.7243 33.4131 25.4935L27.6599 24.0972C26.9319 23.9205 26.1618 24.1277 25.6311 24.6428L19.7429 30.3592ZM19.7429 30.3592C13.0871 27.1074 8.57881 22.2052 5.63965 17.0907M5.63965 17.0907C2.83942 12.218 1.46349 7.1526 1.01188 3.13782C0.880755 1.97231 1.85298 1 3.06066 1H7.64561C8.66389 1 9.54061 1.69777 9.74032 2.66713L11.3088 10.281C11.4489 10.9609 11.2297 11.6638 10.7247 12.1541L5.63965 17.0907Z" stroke="#AF82F7" stroke-width="2"/>
</svg>
