<svg width="40" height="41" viewBox="0 0 40 41" fill="none" xmlns="http://www.w3.org/2000/svg">
<rect y="0.5" width="40" height="40" rx="20" fill="#EE2024"/>
<path fill-rule="evenodd" clip-rule="evenodd" d="M20 29.1667C24.7865 29.1667 28.6667 25.2865 28.6667 20.5C28.6667 15.7135 24.7865 11.8333 20 11.8333C15.2135 11.8333 11.3333 15.7135 11.3333 20.5C11.3333 25.2865 15.2135 29.1667 20 29.1667ZM20 30.5C25.5228 30.5 30 26.0228 30 20.5C30 14.9772 25.5228 10.5 20 10.5C14.4772 10.5 10 14.9772 10 20.5C10 26.0228 14.4772 30.5 20 30.5Z" fill="white"/>
<path fill-rule="evenodd" clip-rule="evenodd" d="M25.6109 27.4444L12.6666 14.5001L13.6094 13.5573L26.5537 26.5016L25.6109 27.4444Z" fill="white"/>
<path fill-rule="evenodd" clip-rule="evenodd" d="M20 29.1667C24.7865 29.1667 28.6667 25.2865 28.6667 20.5C28.6667 15.7135 24.7865 11.8333 20 11.8333C15.2135 11.8333 11.3333 15.7135 11.3333 20.5C11.3333 25.2865 15.2135 29.1667 20 29.1667ZM20 30.5C25.5228 30.5 30 26.0228 30 20.5C30 14.9772 25.5228 10.5 20 10.5C14.4772 10.5 10 14.9772 10 20.5C10 26.0228 14.4772 30.5 20 30.5Z" stroke="white" stroke-width="0.5"/>
<path fill-rule="evenodd" clip-rule="evenodd" d="M25.6109 27.4444L12.6666 14.5001L13.6094 13.5573L26.5537 26.5016L25.6109 27.4444Z" stroke="white" stroke-width="0.5"/>
</svg>
