<svg width="40" height="41" viewBox="0 0 40 41" fill="none" xmlns="http://www.w3.org/2000/svg">
<rect y="0.5" width="40" height="40" rx="20" fill="#0FCF4C"/>
<path fill-rule="evenodd" clip-rule="evenodd" d="M24.691 16.9226L16.8091 25.2559C16.4796 25.5814 15.9454 25.5814 15.616 25.2559L10.2471 19.9528C9.91763 19.6273 9.91763 19.0997 10.2471 18.7743C10.5766 18.4488 11.1107 18.4488 11.4402 18.7743L16.2125 23.4882L23.498 15.7441C23.8274 15.4186 24.3616 15.4186 24.691 15.7441C25.0205 16.0695 25.0205 16.5971 24.691 16.9226Z" fill="white"/>
<path fill-rule="evenodd" clip-rule="evenodd" d="M29.7529 16.9225L21.8709 25.2559C21.5414 25.5813 21.0073 25.5813 20.6778 25.2559L18.4362 22.9998C18.1067 22.6743 18.1067 22.1467 18.4362 21.8213C18.7656 21.4959 19.2998 21.4959 19.6293 21.8213L21.2743 23.4882L28.5598 15.7441C28.8893 15.4186 29.4234 15.4186 29.7529 15.7441C30.0824 16.0695 30.0824 16.5971 29.7529 16.9225Z" fill="white"/>
<path fill-rule="evenodd" clip-rule="evenodd" d="M24.691 16.9226L16.8091 25.2559C16.4796 25.5814 15.9454 25.5814 15.616 25.2559L10.2471 19.9528C9.91763 19.6273 9.91763 19.0997 10.2471 18.7743C10.5766 18.4488 11.1107 18.4488 11.4402 18.7743L16.2125 23.4882L23.498 15.7441C23.8274 15.4186 24.3616 15.4186 24.691 15.7441C25.0205 16.0695 25.0205 16.5971 24.691 16.9226Z" stroke="white" stroke-width="0.5"/>
<path fill-rule="evenodd" clip-rule="evenodd" d="M29.7529 16.9225L21.8709 25.2559C21.5414 25.5813 21.0073 25.5813 20.6778 25.2559L18.4362 22.9998C18.1067 22.6743 18.1067 22.1467 18.4362 21.8213C18.7656 21.4959 19.2998 21.4959 19.6293 21.8213L21.2743 23.4882L28.5598 15.7441C28.8893 15.4186 29.4234 15.4186 29.7529 15.7441C30.0824 16.0695 30.0824 16.5971 29.7529 16.9225Z" stroke="white" stroke-width="0.5"/>
</svg>
